<svg width="76" height="15" viewBox="0 0 76 15" fill="none" xmlns="http://www.w3.org/2000/svg">
<path d="M5.77778 0L0 8.18182L0.666667 8.86364H4.22222V9.77273V15H5.33333L12 6.81818L11.3333 5.22727H7.33333V0H5.77778Z" fill="url(#paint0_linear_220_2)"/>
<path d="M18.6426 4.62891H16.1582V3.28711H24.5137V4.62891H22.0293V12H18.6426V4.62891ZM25.7852 3.29297H30.8066C31.4551 3.29297 32.0215 3.36133 32.5059 3.49805C32.9941 3.63477 33.4004 3.82617 33.7246 4.07227C34.0527 4.31836 34.2988 4.61328 34.4629 4.95703C34.627 5.30078 34.709 5.67969 34.709 6.09375C34.709 6.60547 34.5879 7.06055 34.3457 7.45898C34.1035 7.85352 33.7441 8.16797 33.2676 8.40234L35.0957 12.0059H31.2695L29.8867 8.8418H29.1719V12H25.7852V3.29297ZM29.377 7.78125C29.6543 7.78125 29.9023 7.74219 30.1211 7.66406C30.3398 7.58594 30.5254 7.47656 30.6777 7.33594C30.8301 7.19141 30.9473 7.02148 31.0293 6.82617C31.1113 6.62695 31.1523 6.41016 31.1523 6.17578C31.1523 5.94141 31.1113 5.72656 31.0293 5.53125C30.9473 5.33203 30.8301 5.16211 30.6777 5.02148C30.5254 4.87695 30.3398 4.76562 30.1211 4.6875C29.9023 4.60938 29.6543 4.57031 29.377 4.57031H29.1777L29.1719 7.78125H29.377ZM39.127 5.49023L38.1191 3.29297H41.6875L45.9531 12.0059H42.127L41.4824 10.6113H38.0488L37.4102 12.0059H35.9277L39.127 5.49023ZM40.8672 9.26953L39.7656 6.87891L38.6699 9.26953H40.8672ZM46.6387 7.65234C46.6387 7.23828 46.6914 6.83984 46.7969 6.45703C46.9062 6.07031 47.0645 5.71094 47.2715 5.37891C47.4785 5.04688 47.7324 4.74414 48.0332 4.4707C48.334 4.19727 48.6758 3.96289 49.0586 3.76758C49.4453 3.57227 49.8711 3.42188 50.3359 3.31641C50.8008 3.20703 51.3008 3.15234 51.8359 3.15234C52.1797 3.15234 52.5078 3.17383 52.8203 3.2168C53.1367 3.25977 53.4336 3.32031 53.7109 3.39844C53.9883 3.47266 54.2441 3.56055 54.4785 3.66211C54.7168 3.75977 54.9316 3.86328 55.123 3.97266L54.6191 4.95703C54.4004 4.85156 54.1504 4.76367 53.8691 4.69336C53.5918 4.61914 53.3027 4.58203 53.002 4.58203C52.5996 4.58203 52.2266 4.6543 51.8828 4.79883C51.5391 4.94336 51.2422 5.14844 50.9922 5.41406C50.7422 5.67969 50.5449 6.00195 50.4004 6.38086C50.2598 6.75586 50.1895 7.17773 50.1895 7.64648C50.1895 8.11133 50.2598 8.5332 50.4004 8.91211C50.541 9.28711 50.7344 9.60938 50.9805 9.87891C51.2305 10.1445 51.5254 10.3516 51.8652 10.5C52.209 10.6445 52.5801 10.7168 52.9785 10.7168C53.2598 10.7168 53.541 10.6836 53.8223 10.6172C54.1035 10.5469 54.3613 10.4551 54.5957 10.3418L55.0996 11.3262C54.9082 11.4395 54.6953 11.5449 54.4609 11.6426C54.2266 11.7402 53.9727 11.8281 53.6992 11.9062C53.4258 11.9805 53.1328 12.0391 52.8203 12.082C52.5078 12.125 52.1797 12.1465 51.8359 12.1465C51.0352 12.1465 50.3125 12.0293 49.668 11.7949C49.0273 11.5566 48.4824 11.2344 48.0332 10.8281C47.584 10.418 47.2383 9.94141 46.9961 9.39844C46.7578 8.85156 46.6387 8.26953 46.6387 7.65234ZM56.4766 3.29297H59.8633V8.33789L63.6309 3.29297H65.3242L62.5469 7.03125L66.1855 12.0059H62.3711L60.4258 9.26953L59.8633 10.043V12H56.4766V3.29297ZM69.2148 7.81641L66.3906 3.29297H70.2168L71.916 6.01172L73.6504 3.29297H75.1797L72.6367 7.17188L75.6602 12L71.834 12.0059L69.9238 8.95898L67.9492 12.0059H66.4141L69.2148 7.81641Z" fill="white"/>
<defs>
<linearGradient id="paint0_linear_220_2" x1="6" y1="0" x2="6" y2="15" gradientUnits="userSpaceOnUse">
<stop stop-color="#D5224E"/>
<stop offset="1" stop-color="#FF003F"/>
</linearGradient>
</defs>
</svg>
